<mxfile host="app.diagrams.net" modified="2022-09-30T08:55:13.467Z" agent="5.0 (Macintosh; Intel Mac OS X 10_15_7) AppleWebKit/537.36 (KHTML, like Gecko) Chrome/104.0.0.0 Safari/537.36" etag="pFTgDsZziNvRAnoTp5xh" version="20.3.0" type="github">
  <diagram id="oKwChep5jHQkifSKZ8a8" name="第 1 页">
    <mxGraphModel dx="1183" dy="654" grid="1" gridSize="10" guides="1" tooltips="1" connect="1" arrows="1" fold="1" page="1" pageScale="1" pageWidth="827" pageHeight="1169" math="0" shadow="0">
      <root>
        <mxCell id="0" />
        <mxCell id="1" parent="0" />
        <mxCell id="vQLtZ0_6DRkMuf_HglVX-119" value="" style="shape=table;html=1;whiteSpace=wrap;startSize=0;container=1;collapsible=0;childLayout=tableLayout;fontSize=20;" vertex="1" parent="1">
          <mxGeometry x="240" y="80" width="360" height="520" as="geometry" />
        </mxCell>
        <mxCell id="vQLtZ0_6DRkMuf_HglVX-120" value="" style="shape=tableRow;horizontal=0;startSize=0;swimlaneHead=0;swimlaneBody=0;top=0;left=0;bottom=0;right=0;collapsible=0;dropTarget=0;fillColor=none;points=[[0,0.5],[1,0.5]];portConstraint=eastwest;fontSize=20;" vertex="1" parent="vQLtZ0_6DRkMuf_HglVX-119">
          <mxGeometry width="360" height="40" as="geometry" />
        </mxCell>
        <mxCell id="vQLtZ0_6DRkMuf_HglVX-157" value="&lt;font style=&quot;font-size: 20px;&quot;&gt;11&lt;/font&gt;" style="shape=partialRectangle;html=1;whiteSpace=wrap;connectable=0;fillColor=none;top=0;left=0;bottom=0;right=0;overflow=hidden;fontSize=20;" vertex="1" parent="vQLtZ0_6DRkMuf_HglVX-120">
          <mxGeometry width="40" height="40" as="geometry">
            <mxRectangle width="40" height="40" as="alternateBounds" />
          </mxGeometry>
        </mxCell>
        <mxCell id="vQLtZ0_6DRkMuf_HglVX-154" value="&lt;span style=&quot;font-size: 20px;&quot;&gt;4&lt;/span&gt;" style="shape=partialRectangle;html=1;whiteSpace=wrap;connectable=0;fillColor=none;top=0;left=0;bottom=0;right=0;overflow=hidden;fontSize=20;" vertex="1" parent="vQLtZ0_6DRkMuf_HglVX-120">
          <mxGeometry x="40" width="40" height="40" as="geometry">
            <mxRectangle width="40" height="40" as="alternateBounds" />
          </mxGeometry>
        </mxCell>
        <mxCell id="vQLtZ0_6DRkMuf_HglVX-151" value="3" style="shape=partialRectangle;html=1;whiteSpace=wrap;connectable=0;fillColor=none;top=0;left=0;bottom=0;right=0;overflow=hidden;fontSize=20;" vertex="1" parent="vQLtZ0_6DRkMuf_HglVX-120">
          <mxGeometry x="80" width="40" height="40" as="geometry">
            <mxRectangle width="40" height="40" as="alternateBounds" />
          </mxGeometry>
        </mxCell>
        <mxCell id="vQLtZ0_6DRkMuf_HglVX-148" style="shape=partialRectangle;html=1;whiteSpace=wrap;connectable=0;fillColor=none;top=0;left=0;bottom=0;right=0;overflow=hidden;fontSize=20;" vertex="1" parent="vQLtZ0_6DRkMuf_HglVX-120">
          <mxGeometry x="120" width="40" height="40" as="geometry">
            <mxRectangle width="40" height="40" as="alternateBounds" />
          </mxGeometry>
        </mxCell>
        <mxCell id="vQLtZ0_6DRkMuf_HglVX-145" style="shape=partialRectangle;html=1;whiteSpace=wrap;connectable=0;fillColor=none;top=0;left=0;bottom=0;right=0;overflow=hidden;fontSize=20;" vertex="1" parent="vQLtZ0_6DRkMuf_HglVX-120">
          <mxGeometry x="160" width="40" height="40" as="geometry">
            <mxRectangle width="40" height="40" as="alternateBounds" />
          </mxGeometry>
        </mxCell>
        <mxCell id="vQLtZ0_6DRkMuf_HglVX-121" value="" style="shape=partialRectangle;html=1;whiteSpace=wrap;connectable=0;fillColor=none;top=0;left=0;bottom=0;right=0;overflow=hidden;fontSize=20;" vertex="1" parent="vQLtZ0_6DRkMuf_HglVX-120">
          <mxGeometry x="200" width="40" height="40" as="geometry">
            <mxRectangle width="40" height="40" as="alternateBounds" />
          </mxGeometry>
        </mxCell>
        <mxCell id="vQLtZ0_6DRkMuf_HglVX-122" value="" style="shape=partialRectangle;html=1;whiteSpace=wrap;connectable=0;fillColor=none;top=0;left=0;bottom=0;right=0;overflow=hidden;fontSize=20;" vertex="1" parent="vQLtZ0_6DRkMuf_HglVX-120">
          <mxGeometry x="240" width="40" height="40" as="geometry">
            <mxRectangle width="40" height="40" as="alternateBounds" />
          </mxGeometry>
        </mxCell>
        <mxCell id="vQLtZ0_6DRkMuf_HglVX-123" value="" style="shape=partialRectangle;html=1;whiteSpace=wrap;connectable=0;fillColor=none;top=0;left=0;bottom=0;right=0;overflow=hidden;fontSize=20;" vertex="1" parent="vQLtZ0_6DRkMuf_HglVX-120">
          <mxGeometry x="280" width="40" height="40" as="geometry">
            <mxRectangle width="40" height="40" as="alternateBounds" />
          </mxGeometry>
        </mxCell>
        <mxCell id="vQLtZ0_6DRkMuf_HglVX-237" style="shape=partialRectangle;html=1;whiteSpace=wrap;connectable=0;fillColor=none;top=0;left=0;bottom=0;right=0;overflow=hidden;fontSize=20;" vertex="1" parent="vQLtZ0_6DRkMuf_HglVX-120">
          <mxGeometry x="320" width="40" height="40" as="geometry">
            <mxRectangle width="40" height="40" as="alternateBounds" />
          </mxGeometry>
        </mxCell>
        <mxCell id="vQLtZ0_6DRkMuf_HglVX-124" value="" style="shape=tableRow;horizontal=0;startSize=0;swimlaneHead=0;swimlaneBody=0;top=0;left=0;bottom=0;right=0;collapsible=0;dropTarget=0;fillColor=none;points=[[0,0.5],[1,0.5]];portConstraint=eastwest;fontSize=20;" vertex="1" parent="vQLtZ0_6DRkMuf_HglVX-119">
          <mxGeometry y="40" width="360" height="40" as="geometry" />
        </mxCell>
        <mxCell id="vQLtZ0_6DRkMuf_HglVX-158" value="4" style="shape=partialRectangle;html=1;whiteSpace=wrap;connectable=0;fillColor=none;top=0;left=0;bottom=0;right=0;overflow=hidden;fontSize=20;" vertex="1" parent="vQLtZ0_6DRkMuf_HglVX-124">
          <mxGeometry width="40" height="40" as="geometry">
            <mxRectangle width="40" height="40" as="alternateBounds" />
          </mxGeometry>
        </mxCell>
        <mxCell id="vQLtZ0_6DRkMuf_HglVX-155" value="12" style="shape=partialRectangle;html=1;whiteSpace=wrap;connectable=0;fillColor=none;top=0;left=0;bottom=0;right=0;overflow=hidden;fontSize=20;" vertex="1" parent="vQLtZ0_6DRkMuf_HglVX-124">
          <mxGeometry x="40" width="40" height="40" as="geometry">
            <mxRectangle width="40" height="40" as="alternateBounds" />
          </mxGeometry>
        </mxCell>
        <mxCell id="vQLtZ0_6DRkMuf_HglVX-152" value="5" style="shape=partialRectangle;html=1;whiteSpace=wrap;connectable=0;fillColor=none;top=0;left=0;bottom=0;right=0;overflow=hidden;fontSize=20;" vertex="1" parent="vQLtZ0_6DRkMuf_HglVX-124">
          <mxGeometry x="80" width="40" height="40" as="geometry">
            <mxRectangle width="40" height="40" as="alternateBounds" />
          </mxGeometry>
        </mxCell>
        <mxCell id="vQLtZ0_6DRkMuf_HglVX-149" value="4" style="shape=partialRectangle;html=1;whiteSpace=wrap;connectable=0;fillColor=none;top=0;left=0;bottom=0;right=0;overflow=hidden;fontSize=20;" vertex="1" parent="vQLtZ0_6DRkMuf_HglVX-124">
          <mxGeometry x="120" width="40" height="40" as="geometry">
            <mxRectangle width="40" height="40" as="alternateBounds" />
          </mxGeometry>
        </mxCell>
        <mxCell id="vQLtZ0_6DRkMuf_HglVX-146" style="shape=partialRectangle;html=1;whiteSpace=wrap;connectable=0;fillColor=none;top=0;left=0;bottom=0;right=0;overflow=hidden;fontSize=20;" vertex="1" parent="vQLtZ0_6DRkMuf_HglVX-124">
          <mxGeometry x="160" width="40" height="40" as="geometry">
            <mxRectangle width="40" height="40" as="alternateBounds" />
          </mxGeometry>
        </mxCell>
        <mxCell id="vQLtZ0_6DRkMuf_HglVX-125" value="" style="shape=partialRectangle;html=1;whiteSpace=wrap;connectable=0;fillColor=none;top=0;left=0;bottom=0;right=0;overflow=hidden;fontSize=20;" vertex="1" parent="vQLtZ0_6DRkMuf_HglVX-124">
          <mxGeometry x="200" width="40" height="40" as="geometry">
            <mxRectangle width="40" height="40" as="alternateBounds" />
          </mxGeometry>
        </mxCell>
        <mxCell id="vQLtZ0_6DRkMuf_HglVX-126" value="" style="shape=partialRectangle;html=1;whiteSpace=wrap;connectable=0;fillColor=none;top=0;left=0;bottom=0;right=0;overflow=hidden;fontSize=20;" vertex="1" parent="vQLtZ0_6DRkMuf_HglVX-124">
          <mxGeometry x="240" width="40" height="40" as="geometry">
            <mxRectangle width="40" height="40" as="alternateBounds" />
          </mxGeometry>
        </mxCell>
        <mxCell id="vQLtZ0_6DRkMuf_HglVX-127" value="" style="shape=partialRectangle;html=1;whiteSpace=wrap;connectable=0;fillColor=none;top=0;left=0;bottom=0;right=0;overflow=hidden;fontSize=20;" vertex="1" parent="vQLtZ0_6DRkMuf_HglVX-124">
          <mxGeometry x="280" width="40" height="40" as="geometry">
            <mxRectangle width="40" height="40" as="alternateBounds" />
          </mxGeometry>
        </mxCell>
        <mxCell id="vQLtZ0_6DRkMuf_HglVX-238" style="shape=partialRectangle;html=1;whiteSpace=wrap;connectable=0;fillColor=none;top=0;left=0;bottom=0;right=0;overflow=hidden;fontSize=20;" vertex="1" parent="vQLtZ0_6DRkMuf_HglVX-124">
          <mxGeometry x="320" width="40" height="40" as="geometry">
            <mxRectangle width="40" height="40" as="alternateBounds" />
          </mxGeometry>
        </mxCell>
        <mxCell id="vQLtZ0_6DRkMuf_HglVX-128" value="" style="shape=tableRow;horizontal=0;startSize=0;swimlaneHead=0;swimlaneBody=0;top=0;left=0;bottom=0;right=0;collapsible=0;dropTarget=0;fillColor=none;points=[[0,0.5],[1,0.5]];portConstraint=eastwest;fontSize=20;" vertex="1" parent="vQLtZ0_6DRkMuf_HglVX-119">
          <mxGeometry y="80" width="360" height="40" as="geometry" />
        </mxCell>
        <mxCell id="vQLtZ0_6DRkMuf_HglVX-159" value="3" style="shape=partialRectangle;html=1;whiteSpace=wrap;connectable=0;fillColor=none;top=0;left=0;bottom=0;right=0;overflow=hidden;fontSize=20;" vertex="1" parent="vQLtZ0_6DRkMuf_HglVX-128">
          <mxGeometry width="40" height="40" as="geometry">
            <mxRectangle width="40" height="40" as="alternateBounds" />
          </mxGeometry>
        </mxCell>
        <mxCell id="vQLtZ0_6DRkMuf_HglVX-156" value="5" style="shape=partialRectangle;html=1;whiteSpace=wrap;connectable=0;fillColor=none;top=0;left=0;bottom=0;right=0;overflow=hidden;fontSize=20;" vertex="1" parent="vQLtZ0_6DRkMuf_HglVX-128">
          <mxGeometry x="40" width="40" height="40" as="geometry">
            <mxRectangle width="40" height="40" as="alternateBounds" />
          </mxGeometry>
        </mxCell>
        <mxCell id="vQLtZ0_6DRkMuf_HglVX-153" value="8" style="shape=partialRectangle;html=1;whiteSpace=wrap;connectable=0;fillColor=none;top=0;left=0;bottom=0;right=0;overflow=hidden;fontSize=20;" vertex="1" parent="vQLtZ0_6DRkMuf_HglVX-128">
          <mxGeometry x="80" width="40" height="40" as="geometry">
            <mxRectangle width="40" height="40" as="alternateBounds" />
          </mxGeometry>
        </mxCell>
        <mxCell id="vQLtZ0_6DRkMuf_HglVX-150" value="6" style="shape=partialRectangle;html=1;whiteSpace=wrap;connectable=0;fillColor=none;top=0;left=0;bottom=0;right=0;overflow=hidden;fontSize=20;" vertex="1" parent="vQLtZ0_6DRkMuf_HglVX-128">
          <mxGeometry x="120" width="40" height="40" as="geometry">
            <mxRectangle width="40" height="40" as="alternateBounds" />
          </mxGeometry>
        </mxCell>
        <mxCell id="vQLtZ0_6DRkMuf_HglVX-147" value="5" style="shape=partialRectangle;html=1;whiteSpace=wrap;connectable=0;fillColor=none;top=0;left=0;bottom=0;right=0;overflow=hidden;fontSize=20;" vertex="1" parent="vQLtZ0_6DRkMuf_HglVX-128">
          <mxGeometry x="160" width="40" height="40" as="geometry">
            <mxRectangle width="40" height="40" as="alternateBounds" />
          </mxGeometry>
        </mxCell>
        <mxCell id="vQLtZ0_6DRkMuf_HglVX-129" value="" style="shape=partialRectangle;html=1;whiteSpace=wrap;connectable=0;fillColor=none;top=0;left=0;bottom=0;right=0;overflow=hidden;fontSize=20;" vertex="1" parent="vQLtZ0_6DRkMuf_HglVX-128">
          <mxGeometry x="200" width="40" height="40" as="geometry">
            <mxRectangle width="40" height="40" as="alternateBounds" />
          </mxGeometry>
        </mxCell>
        <mxCell id="vQLtZ0_6DRkMuf_HglVX-130" value="" style="shape=partialRectangle;html=1;whiteSpace=wrap;connectable=0;fillColor=none;top=0;left=0;bottom=0;right=0;overflow=hidden;fontSize=20;" vertex="1" parent="vQLtZ0_6DRkMuf_HglVX-128">
          <mxGeometry x="240" width="40" height="40" as="geometry">
            <mxRectangle width="40" height="40" as="alternateBounds" />
          </mxGeometry>
        </mxCell>
        <mxCell id="vQLtZ0_6DRkMuf_HglVX-131" value="" style="shape=partialRectangle;html=1;whiteSpace=wrap;connectable=0;fillColor=none;top=0;left=0;bottom=0;right=0;overflow=hidden;pointerEvents=1;fontSize=20;" vertex="1" parent="vQLtZ0_6DRkMuf_HglVX-128">
          <mxGeometry x="280" width="40" height="40" as="geometry">
            <mxRectangle width="40" height="40" as="alternateBounds" />
          </mxGeometry>
        </mxCell>
        <mxCell id="vQLtZ0_6DRkMuf_HglVX-239" style="shape=partialRectangle;html=1;whiteSpace=wrap;connectable=0;fillColor=none;top=0;left=0;bottom=0;right=0;overflow=hidden;pointerEvents=1;fontSize=20;" vertex="1" parent="vQLtZ0_6DRkMuf_HglVX-128">
          <mxGeometry x="320" width="40" height="40" as="geometry">
            <mxRectangle width="40" height="40" as="alternateBounds" />
          </mxGeometry>
        </mxCell>
        <mxCell id="vQLtZ0_6DRkMuf_HglVX-160" style="shape=tableRow;horizontal=0;startSize=0;swimlaneHead=0;swimlaneBody=0;top=0;left=0;bottom=0;right=0;collapsible=0;dropTarget=0;fillColor=none;points=[[0,0.5],[1,0.5]];portConstraint=eastwest;fontSize=20;" vertex="1" parent="vQLtZ0_6DRkMuf_HglVX-119">
          <mxGeometry y="120" width="360" height="40" as="geometry" />
        </mxCell>
        <mxCell id="vQLtZ0_6DRkMuf_HglVX-161" style="shape=partialRectangle;html=1;whiteSpace=wrap;connectable=0;fillColor=none;top=0;left=0;bottom=0;right=0;overflow=hidden;fontSize=20;" vertex="1" parent="vQLtZ0_6DRkMuf_HglVX-160">
          <mxGeometry width="40" height="40" as="geometry">
            <mxRectangle width="40" height="40" as="alternateBounds" />
          </mxGeometry>
        </mxCell>
        <mxCell id="vQLtZ0_6DRkMuf_HglVX-162" value="4" style="shape=partialRectangle;html=1;whiteSpace=wrap;connectable=0;fillColor=none;top=0;left=0;bottom=0;right=0;overflow=hidden;fontSize=20;" vertex="1" parent="vQLtZ0_6DRkMuf_HglVX-160">
          <mxGeometry x="40" width="40" height="40" as="geometry">
            <mxRectangle width="40" height="40" as="alternateBounds" />
          </mxGeometry>
        </mxCell>
        <mxCell id="vQLtZ0_6DRkMuf_HglVX-163" value="6" style="shape=partialRectangle;html=1;whiteSpace=wrap;connectable=0;fillColor=none;top=0;left=0;bottom=0;right=0;overflow=hidden;fontSize=20;" vertex="1" parent="vQLtZ0_6DRkMuf_HglVX-160">
          <mxGeometry x="80" width="40" height="40" as="geometry">
            <mxRectangle width="40" height="40" as="alternateBounds" />
          </mxGeometry>
        </mxCell>
        <mxCell id="vQLtZ0_6DRkMuf_HglVX-164" value="4" style="shape=partialRectangle;html=1;whiteSpace=wrap;connectable=0;fillColor=none;top=0;left=0;bottom=0;right=0;overflow=hidden;fontSize=20;" vertex="1" parent="vQLtZ0_6DRkMuf_HglVX-160">
          <mxGeometry x="120" width="40" height="40" as="geometry">
            <mxRectangle width="40" height="40" as="alternateBounds" />
          </mxGeometry>
        </mxCell>
        <mxCell id="vQLtZ0_6DRkMuf_HglVX-165" value="2" style="shape=partialRectangle;html=1;whiteSpace=wrap;connectable=0;fillColor=none;top=0;left=0;bottom=0;right=0;overflow=hidden;fontSize=20;" vertex="1" parent="vQLtZ0_6DRkMuf_HglVX-160">
          <mxGeometry x="160" width="40" height="40" as="geometry">
            <mxRectangle width="40" height="40" as="alternateBounds" />
          </mxGeometry>
        </mxCell>
        <mxCell id="vQLtZ0_6DRkMuf_HglVX-166" value="1" style="shape=partialRectangle;html=1;whiteSpace=wrap;connectable=0;fillColor=none;top=0;left=0;bottom=0;right=0;overflow=hidden;fontSize=20;" vertex="1" parent="vQLtZ0_6DRkMuf_HglVX-160">
          <mxGeometry x="200" width="40" height="40" as="geometry">
            <mxRectangle width="40" height="40" as="alternateBounds" />
          </mxGeometry>
        </mxCell>
        <mxCell id="vQLtZ0_6DRkMuf_HglVX-167" style="shape=partialRectangle;html=1;whiteSpace=wrap;connectable=0;fillColor=none;top=0;left=0;bottom=0;right=0;overflow=hidden;fontSize=20;" vertex="1" parent="vQLtZ0_6DRkMuf_HglVX-160">
          <mxGeometry x="240" width="40" height="40" as="geometry">
            <mxRectangle width="40" height="40" as="alternateBounds" />
          </mxGeometry>
        </mxCell>
        <mxCell id="vQLtZ0_6DRkMuf_HglVX-168" style="shape=partialRectangle;html=1;whiteSpace=wrap;connectable=0;fillColor=none;top=0;left=0;bottom=0;right=0;overflow=hidden;pointerEvents=1;fontSize=20;" vertex="1" parent="vQLtZ0_6DRkMuf_HglVX-160">
          <mxGeometry x="280" width="40" height="40" as="geometry">
            <mxRectangle width="40" height="40" as="alternateBounds" />
          </mxGeometry>
        </mxCell>
        <mxCell id="vQLtZ0_6DRkMuf_HglVX-240" style="shape=partialRectangle;html=1;whiteSpace=wrap;connectable=0;fillColor=none;top=0;left=0;bottom=0;right=0;overflow=hidden;pointerEvents=1;fontSize=20;" vertex="1" parent="vQLtZ0_6DRkMuf_HglVX-160">
          <mxGeometry x="320" width="40" height="40" as="geometry">
            <mxRectangle width="40" height="40" as="alternateBounds" />
          </mxGeometry>
        </mxCell>
        <mxCell id="vQLtZ0_6DRkMuf_HglVX-169" style="shape=tableRow;horizontal=0;startSize=0;swimlaneHead=0;swimlaneBody=0;top=0;left=0;bottom=0;right=0;collapsible=0;dropTarget=0;fillColor=none;points=[[0,0.5],[1,0.5]];portConstraint=eastwest;fontSize=20;" vertex="1" parent="vQLtZ0_6DRkMuf_HglVX-119">
          <mxGeometry y="160" width="360" height="40" as="geometry" />
        </mxCell>
        <mxCell id="vQLtZ0_6DRkMuf_HglVX-170" style="shape=partialRectangle;html=1;whiteSpace=wrap;connectable=0;fillColor=none;top=0;left=0;bottom=0;right=0;overflow=hidden;fontSize=20;" vertex="1" parent="vQLtZ0_6DRkMuf_HglVX-169">
          <mxGeometry width="40" height="40" as="geometry">
            <mxRectangle width="40" height="40" as="alternateBounds" />
          </mxGeometry>
        </mxCell>
        <mxCell id="vQLtZ0_6DRkMuf_HglVX-171" style="shape=partialRectangle;html=1;whiteSpace=wrap;connectable=0;fillColor=none;top=0;left=0;bottom=0;right=0;overflow=hidden;fontSize=20;" vertex="1" parent="vQLtZ0_6DRkMuf_HglVX-169">
          <mxGeometry x="40" width="40" height="40" as="geometry">
            <mxRectangle width="40" height="40" as="alternateBounds" />
          </mxGeometry>
        </mxCell>
        <mxCell id="vQLtZ0_6DRkMuf_HglVX-172" value="5" style="shape=partialRectangle;html=1;whiteSpace=wrap;connectable=0;fillColor=none;top=0;left=0;bottom=0;right=0;overflow=hidden;fontSize=20;" vertex="1" parent="vQLtZ0_6DRkMuf_HglVX-169">
          <mxGeometry x="80" width="40" height="40" as="geometry">
            <mxRectangle width="40" height="40" as="alternateBounds" />
          </mxGeometry>
        </mxCell>
        <mxCell id="vQLtZ0_6DRkMuf_HglVX-173" value="2" style="shape=partialRectangle;html=1;whiteSpace=wrap;connectable=0;fillColor=none;top=0;left=0;bottom=0;right=0;overflow=hidden;fontSize=20;" vertex="1" parent="vQLtZ0_6DRkMuf_HglVX-169">
          <mxGeometry x="120" width="40" height="40" as="geometry">
            <mxRectangle width="40" height="40" as="alternateBounds" />
          </mxGeometry>
        </mxCell>
        <mxCell id="vQLtZ0_6DRkMuf_HglVX-174" value="0" style="shape=partialRectangle;html=1;whiteSpace=wrap;connectable=0;fillColor=none;top=0;left=0;bottom=0;right=0;overflow=hidden;fontSize=20;" vertex="1" parent="vQLtZ0_6DRkMuf_HglVX-169">
          <mxGeometry x="160" width="40" height="40" as="geometry">
            <mxRectangle width="40" height="40" as="alternateBounds" />
          </mxGeometry>
        </mxCell>
        <mxCell id="vQLtZ0_6DRkMuf_HglVX-175" value="0" style="shape=partialRectangle;html=1;whiteSpace=wrap;connectable=0;fillColor=none;top=0;left=0;bottom=0;right=0;overflow=hidden;fontSize=20;" vertex="1" parent="vQLtZ0_6DRkMuf_HglVX-169">
          <mxGeometry x="200" width="40" height="40" as="geometry">
            <mxRectangle width="40" height="40" as="alternateBounds" />
          </mxGeometry>
        </mxCell>
        <mxCell id="vQLtZ0_6DRkMuf_HglVX-176" value="0" style="shape=partialRectangle;html=1;whiteSpace=wrap;connectable=0;fillColor=none;top=0;left=0;bottom=0;right=0;overflow=hidden;fontSize=20;" vertex="1" parent="vQLtZ0_6DRkMuf_HglVX-169">
          <mxGeometry x="240" width="40" height="40" as="geometry">
            <mxRectangle width="40" height="40" as="alternateBounds" />
          </mxGeometry>
        </mxCell>
        <mxCell id="vQLtZ0_6DRkMuf_HglVX-177" style="shape=partialRectangle;html=1;whiteSpace=wrap;connectable=0;fillColor=none;top=0;left=0;bottom=0;right=0;overflow=hidden;pointerEvents=1;fontSize=20;" vertex="1" parent="vQLtZ0_6DRkMuf_HglVX-169">
          <mxGeometry x="280" width="40" height="40" as="geometry">
            <mxRectangle width="40" height="40" as="alternateBounds" />
          </mxGeometry>
        </mxCell>
        <mxCell id="vQLtZ0_6DRkMuf_HglVX-241" style="shape=partialRectangle;html=1;whiteSpace=wrap;connectable=0;fillColor=none;top=0;left=0;bottom=0;right=0;overflow=hidden;pointerEvents=1;fontSize=20;" vertex="1" parent="vQLtZ0_6DRkMuf_HglVX-169">
          <mxGeometry x="320" width="40" height="40" as="geometry">
            <mxRectangle width="40" height="40" as="alternateBounds" />
          </mxGeometry>
        </mxCell>
        <mxCell id="vQLtZ0_6DRkMuf_HglVX-178" style="shape=tableRow;horizontal=0;startSize=0;swimlaneHead=0;swimlaneBody=0;top=0;left=0;bottom=0;right=0;collapsible=0;dropTarget=0;fillColor=none;points=[[0,0.5],[1,0.5]];portConstraint=eastwest;fontSize=20;" vertex="1" parent="vQLtZ0_6DRkMuf_HglVX-119">
          <mxGeometry y="200" width="360" height="40" as="geometry" />
        </mxCell>
        <mxCell id="vQLtZ0_6DRkMuf_HglVX-179" style="shape=partialRectangle;html=1;whiteSpace=wrap;connectable=0;fillColor=none;top=0;left=0;bottom=0;right=0;overflow=hidden;fontSize=20;" vertex="1" parent="vQLtZ0_6DRkMuf_HglVX-178">
          <mxGeometry width="40" height="40" as="geometry">
            <mxRectangle width="40" height="40" as="alternateBounds" />
          </mxGeometry>
        </mxCell>
        <mxCell id="vQLtZ0_6DRkMuf_HglVX-180" style="shape=partialRectangle;html=1;whiteSpace=wrap;connectable=0;fillColor=none;top=0;left=0;bottom=0;right=0;overflow=hidden;fontSize=20;" vertex="1" parent="vQLtZ0_6DRkMuf_HglVX-178">
          <mxGeometry x="40" width="40" height="40" as="geometry">
            <mxRectangle width="40" height="40" as="alternateBounds" />
          </mxGeometry>
        </mxCell>
        <mxCell id="vQLtZ0_6DRkMuf_HglVX-181" style="shape=partialRectangle;html=1;whiteSpace=wrap;connectable=0;fillColor=none;top=0;left=0;bottom=0;right=0;overflow=hidden;fontSize=20;" vertex="1" parent="vQLtZ0_6DRkMuf_HglVX-178">
          <mxGeometry x="80" width="40" height="40" as="geometry">
            <mxRectangle width="40" height="40" as="alternateBounds" />
          </mxGeometry>
        </mxCell>
        <mxCell id="vQLtZ0_6DRkMuf_HglVX-182" value="1" style="shape=partialRectangle;html=1;whiteSpace=wrap;connectable=0;fillColor=none;top=0;left=0;bottom=0;right=0;overflow=hidden;fontSize=20;" vertex="1" parent="vQLtZ0_6DRkMuf_HglVX-178">
          <mxGeometry x="120" width="40" height="40" as="geometry">
            <mxRectangle width="40" height="40" as="alternateBounds" />
          </mxGeometry>
        </mxCell>
        <mxCell id="vQLtZ0_6DRkMuf_HglVX-183" value="0" style="shape=partialRectangle;html=1;whiteSpace=wrap;connectable=0;fillColor=none;top=0;left=0;bottom=0;right=0;overflow=hidden;fontSize=20;" vertex="1" parent="vQLtZ0_6DRkMuf_HglVX-178">
          <mxGeometry x="160" width="40" height="40" as="geometry">
            <mxRectangle width="40" height="40" as="alternateBounds" />
          </mxGeometry>
        </mxCell>
        <mxCell id="vQLtZ0_6DRkMuf_HglVX-184" value="0" style="shape=partialRectangle;html=1;whiteSpace=wrap;connectable=0;fillColor=none;top=0;left=0;bottom=0;right=0;overflow=hidden;fontSize=20;" vertex="1" parent="vQLtZ0_6DRkMuf_HglVX-178">
          <mxGeometry x="200" width="40" height="40" as="geometry">
            <mxRectangle width="40" height="40" as="alternateBounds" />
          </mxGeometry>
        </mxCell>
        <mxCell id="vQLtZ0_6DRkMuf_HglVX-185" style="shape=partialRectangle;html=1;whiteSpace=wrap;connectable=0;fillColor=none;top=0;left=0;bottom=0;right=0;overflow=hidden;fontSize=20;" vertex="1" parent="vQLtZ0_6DRkMuf_HglVX-178">
          <mxGeometry x="240" width="40" height="40" as="geometry">
            <mxRectangle width="40" height="40" as="alternateBounds" />
          </mxGeometry>
        </mxCell>
        <mxCell id="vQLtZ0_6DRkMuf_HglVX-186" style="shape=partialRectangle;html=1;whiteSpace=wrap;connectable=0;fillColor=none;top=0;left=0;bottom=0;right=0;overflow=hidden;pointerEvents=1;fontSize=20;" vertex="1" parent="vQLtZ0_6DRkMuf_HglVX-178">
          <mxGeometry x="280" width="40" height="40" as="geometry">
            <mxRectangle width="40" height="40" as="alternateBounds" />
          </mxGeometry>
        </mxCell>
        <mxCell id="vQLtZ0_6DRkMuf_HglVX-242" style="shape=partialRectangle;html=1;whiteSpace=wrap;connectable=0;fillColor=none;top=0;left=0;bottom=0;right=0;overflow=hidden;pointerEvents=1;fontSize=20;" vertex="1" parent="vQLtZ0_6DRkMuf_HglVX-178">
          <mxGeometry x="320" width="40" height="40" as="geometry">
            <mxRectangle width="40" height="40" as="alternateBounds" />
          </mxGeometry>
        </mxCell>
        <mxCell id="vQLtZ0_6DRkMuf_HglVX-187" style="shape=tableRow;horizontal=0;startSize=0;swimlaneHead=0;swimlaneBody=0;top=0;left=0;bottom=0;right=0;collapsible=0;dropTarget=0;fillColor=none;points=[[0,0.5],[1,0.5]];portConstraint=eastwest;fontSize=20;" vertex="1" parent="vQLtZ0_6DRkMuf_HglVX-119">
          <mxGeometry y="240" width="360" height="40" as="geometry" />
        </mxCell>
        <mxCell id="vQLtZ0_6DRkMuf_HglVX-188" style="shape=partialRectangle;html=1;whiteSpace=wrap;connectable=0;fillColor=none;top=0;left=0;bottom=0;right=0;overflow=hidden;fontSize=20;" vertex="1" parent="vQLtZ0_6DRkMuf_HglVX-187">
          <mxGeometry width="40" height="40" as="geometry">
            <mxRectangle width="40" height="40" as="alternateBounds" />
          </mxGeometry>
        </mxCell>
        <mxCell id="vQLtZ0_6DRkMuf_HglVX-189" style="shape=partialRectangle;html=1;whiteSpace=wrap;connectable=0;fillColor=none;top=0;left=0;bottom=0;right=0;overflow=hidden;fontSize=20;" vertex="1" parent="vQLtZ0_6DRkMuf_HglVX-187">
          <mxGeometry x="40" width="40" height="40" as="geometry">
            <mxRectangle width="40" height="40" as="alternateBounds" />
          </mxGeometry>
        </mxCell>
        <mxCell id="vQLtZ0_6DRkMuf_HglVX-190" style="shape=partialRectangle;html=1;whiteSpace=wrap;connectable=0;fillColor=none;top=0;left=0;bottom=0;right=0;overflow=hidden;fontSize=20;" vertex="1" parent="vQLtZ0_6DRkMuf_HglVX-187">
          <mxGeometry x="80" width="40" height="40" as="geometry">
            <mxRectangle width="40" height="40" as="alternateBounds" />
          </mxGeometry>
        </mxCell>
        <mxCell id="vQLtZ0_6DRkMuf_HglVX-191" style="shape=partialRectangle;html=1;whiteSpace=wrap;connectable=0;fillColor=none;top=0;left=0;bottom=0;right=0;overflow=hidden;fontSize=20;" vertex="1" parent="vQLtZ0_6DRkMuf_HglVX-187">
          <mxGeometry x="120" width="40" height="40" as="geometry">
            <mxRectangle width="40" height="40" as="alternateBounds" />
          </mxGeometry>
        </mxCell>
        <mxCell id="vQLtZ0_6DRkMuf_HglVX-192" value="2" style="shape=partialRectangle;html=1;whiteSpace=wrap;connectable=0;fillColor=none;top=0;left=0;bottom=0;right=0;overflow=hidden;fontSize=20;" vertex="1" parent="vQLtZ0_6DRkMuf_HglVX-187">
          <mxGeometry x="160" width="40" height="40" as="geometry">
            <mxRectangle width="40" height="40" as="alternateBounds" />
          </mxGeometry>
        </mxCell>
        <mxCell id="vQLtZ0_6DRkMuf_HglVX-193" style="shape=partialRectangle;html=1;whiteSpace=wrap;connectable=0;fillColor=none;top=0;left=0;bottom=0;right=0;overflow=hidden;fontSize=20;" vertex="1" parent="vQLtZ0_6DRkMuf_HglVX-187">
          <mxGeometry x="200" width="40" height="40" as="geometry">
            <mxRectangle width="40" height="40" as="alternateBounds" />
          </mxGeometry>
        </mxCell>
        <mxCell id="vQLtZ0_6DRkMuf_HglVX-194" style="shape=partialRectangle;html=1;whiteSpace=wrap;connectable=0;fillColor=none;top=0;left=0;bottom=0;right=0;overflow=hidden;fontSize=20;" vertex="1" parent="vQLtZ0_6DRkMuf_HglVX-187">
          <mxGeometry x="240" width="40" height="40" as="geometry">
            <mxRectangle width="40" height="40" as="alternateBounds" />
          </mxGeometry>
        </mxCell>
        <mxCell id="vQLtZ0_6DRkMuf_HglVX-195" style="shape=partialRectangle;html=1;whiteSpace=wrap;connectable=0;fillColor=none;top=0;left=0;bottom=0;right=0;overflow=hidden;pointerEvents=1;fontSize=20;" vertex="1" parent="vQLtZ0_6DRkMuf_HglVX-187">
          <mxGeometry x="280" width="40" height="40" as="geometry">
            <mxRectangle width="40" height="40" as="alternateBounds" />
          </mxGeometry>
        </mxCell>
        <mxCell id="vQLtZ0_6DRkMuf_HglVX-243" style="shape=partialRectangle;html=1;whiteSpace=wrap;connectable=0;fillColor=none;top=0;left=0;bottom=0;right=0;overflow=hidden;pointerEvents=1;fontSize=20;" vertex="1" parent="vQLtZ0_6DRkMuf_HglVX-187">
          <mxGeometry x="320" width="40" height="40" as="geometry">
            <mxRectangle width="40" height="40" as="alternateBounds" />
          </mxGeometry>
        </mxCell>
        <mxCell id="vQLtZ0_6DRkMuf_HglVX-196" style="shape=tableRow;horizontal=0;startSize=0;swimlaneHead=0;swimlaneBody=0;top=0;left=0;bottom=0;right=0;collapsible=0;dropTarget=0;fillColor=none;points=[[0,0.5],[1,0.5]];portConstraint=eastwest;fontSize=20;" vertex="1" parent="vQLtZ0_6DRkMuf_HglVX-119">
          <mxGeometry y="280" width="360" height="40" as="geometry" />
        </mxCell>
        <mxCell id="vQLtZ0_6DRkMuf_HglVX-197" style="shape=partialRectangle;html=1;whiteSpace=wrap;connectable=0;fillColor=none;top=0;left=0;bottom=0;right=0;overflow=hidden;fontSize=20;" vertex="1" parent="vQLtZ0_6DRkMuf_HglVX-196">
          <mxGeometry width="40" height="40" as="geometry">
            <mxRectangle width="40" height="40" as="alternateBounds" />
          </mxGeometry>
        </mxCell>
        <mxCell id="vQLtZ0_6DRkMuf_HglVX-198" style="shape=partialRectangle;html=1;whiteSpace=wrap;connectable=0;fillColor=none;top=0;left=0;bottom=0;right=0;overflow=hidden;fontSize=20;" vertex="1" parent="vQLtZ0_6DRkMuf_HglVX-196">
          <mxGeometry x="40" width="40" height="40" as="geometry">
            <mxRectangle width="40" height="40" as="alternateBounds" />
          </mxGeometry>
        </mxCell>
        <mxCell id="vQLtZ0_6DRkMuf_HglVX-199" style="shape=partialRectangle;html=1;whiteSpace=wrap;connectable=0;fillColor=none;top=0;left=0;bottom=0;right=0;overflow=hidden;fontSize=20;" vertex="1" parent="vQLtZ0_6DRkMuf_HglVX-196">
          <mxGeometry x="80" width="40" height="40" as="geometry">
            <mxRectangle width="40" height="40" as="alternateBounds" />
          </mxGeometry>
        </mxCell>
        <mxCell id="vQLtZ0_6DRkMuf_HglVX-200" style="shape=partialRectangle;html=1;whiteSpace=wrap;connectable=0;fillColor=none;top=0;left=0;bottom=0;right=0;overflow=hidden;fontSize=20;" vertex="1" parent="vQLtZ0_6DRkMuf_HglVX-196">
          <mxGeometry x="120" width="40" height="40" as="geometry">
            <mxRectangle width="40" height="40" as="alternateBounds" />
          </mxGeometry>
        </mxCell>
        <mxCell id="vQLtZ0_6DRkMuf_HglVX-201" style="shape=partialRectangle;html=1;whiteSpace=wrap;connectable=0;fillColor=none;top=0;left=0;bottom=0;right=0;overflow=hidden;fontSize=20;" vertex="1" parent="vQLtZ0_6DRkMuf_HglVX-196">
          <mxGeometry x="160" width="40" height="40" as="geometry">
            <mxRectangle width="40" height="40" as="alternateBounds" />
          </mxGeometry>
        </mxCell>
        <mxCell id="vQLtZ0_6DRkMuf_HglVX-202" value="3" style="shape=partialRectangle;html=1;whiteSpace=wrap;connectable=0;fillColor=none;top=0;left=0;bottom=0;right=0;overflow=hidden;fontSize=20;" vertex="1" parent="vQLtZ0_6DRkMuf_HglVX-196">
          <mxGeometry x="200" width="40" height="40" as="geometry">
            <mxRectangle width="40" height="40" as="alternateBounds" />
          </mxGeometry>
        </mxCell>
        <mxCell id="vQLtZ0_6DRkMuf_HglVX-203" style="shape=partialRectangle;html=1;whiteSpace=wrap;connectable=0;fillColor=none;top=0;left=0;bottom=0;right=0;overflow=hidden;fontSize=20;" vertex="1" parent="vQLtZ0_6DRkMuf_HglVX-196">
          <mxGeometry x="240" width="40" height="40" as="geometry">
            <mxRectangle width="40" height="40" as="alternateBounds" />
          </mxGeometry>
        </mxCell>
        <mxCell id="vQLtZ0_6DRkMuf_HglVX-204" style="shape=partialRectangle;html=1;whiteSpace=wrap;connectable=0;fillColor=none;top=0;left=0;bottom=0;right=0;overflow=hidden;pointerEvents=1;fontSize=20;" vertex="1" parent="vQLtZ0_6DRkMuf_HglVX-196">
          <mxGeometry x="280" width="40" height="40" as="geometry">
            <mxRectangle width="40" height="40" as="alternateBounds" />
          </mxGeometry>
        </mxCell>
        <mxCell id="vQLtZ0_6DRkMuf_HglVX-244" style="shape=partialRectangle;html=1;whiteSpace=wrap;connectable=0;fillColor=none;top=0;left=0;bottom=0;right=0;overflow=hidden;pointerEvents=1;fontSize=20;" vertex="1" parent="vQLtZ0_6DRkMuf_HglVX-196">
          <mxGeometry x="320" width="40" height="40" as="geometry">
            <mxRectangle width="40" height="40" as="alternateBounds" />
          </mxGeometry>
        </mxCell>
        <mxCell id="vQLtZ0_6DRkMuf_HglVX-205" style="shape=tableRow;horizontal=0;startSize=0;swimlaneHead=0;swimlaneBody=0;top=0;left=0;bottom=0;right=0;collapsible=0;dropTarget=0;fillColor=none;points=[[0,0.5],[1,0.5]];portConstraint=eastwest;fontSize=20;" vertex="1" parent="vQLtZ0_6DRkMuf_HglVX-119">
          <mxGeometry y="320" width="360" height="40" as="geometry" />
        </mxCell>
        <mxCell id="vQLtZ0_6DRkMuf_HglVX-206" style="shape=partialRectangle;html=1;whiteSpace=wrap;connectable=0;fillColor=none;top=0;left=0;bottom=0;right=0;overflow=hidden;fontSize=20;" vertex="1" parent="vQLtZ0_6DRkMuf_HglVX-205">
          <mxGeometry width="40" height="40" as="geometry">
            <mxRectangle width="40" height="40" as="alternateBounds" />
          </mxGeometry>
        </mxCell>
        <mxCell id="vQLtZ0_6DRkMuf_HglVX-207" style="shape=partialRectangle;html=1;whiteSpace=wrap;connectable=0;fillColor=none;top=0;left=0;bottom=0;right=0;overflow=hidden;fontSize=20;" vertex="1" parent="vQLtZ0_6DRkMuf_HglVX-205">
          <mxGeometry x="40" width="40" height="40" as="geometry">
            <mxRectangle width="40" height="40" as="alternateBounds" />
          </mxGeometry>
        </mxCell>
        <mxCell id="vQLtZ0_6DRkMuf_HglVX-208" style="shape=partialRectangle;html=1;whiteSpace=wrap;connectable=0;fillColor=none;top=0;left=0;bottom=0;right=0;overflow=hidden;fontSize=20;" vertex="1" parent="vQLtZ0_6DRkMuf_HglVX-205">
          <mxGeometry x="80" width="40" height="40" as="geometry">
            <mxRectangle width="40" height="40" as="alternateBounds" />
          </mxGeometry>
        </mxCell>
        <mxCell id="vQLtZ0_6DRkMuf_HglVX-209" style="shape=partialRectangle;html=1;whiteSpace=wrap;connectable=0;fillColor=none;top=0;left=0;bottom=0;right=0;overflow=hidden;fontSize=20;" vertex="1" parent="vQLtZ0_6DRkMuf_HglVX-205">
          <mxGeometry x="120" width="40" height="40" as="geometry">
            <mxRectangle width="40" height="40" as="alternateBounds" />
          </mxGeometry>
        </mxCell>
        <mxCell id="vQLtZ0_6DRkMuf_HglVX-210" style="shape=partialRectangle;html=1;whiteSpace=wrap;connectable=0;fillColor=none;top=0;left=0;bottom=0;right=0;overflow=hidden;fontSize=20;" vertex="1" parent="vQLtZ0_6DRkMuf_HglVX-205">
          <mxGeometry x="160" width="40" height="40" as="geometry">
            <mxRectangle width="40" height="40" as="alternateBounds" />
          </mxGeometry>
        </mxCell>
        <mxCell id="vQLtZ0_6DRkMuf_HglVX-211" style="shape=partialRectangle;html=1;whiteSpace=wrap;connectable=0;fillColor=none;top=0;left=0;bottom=0;right=0;overflow=hidden;fontSize=20;" vertex="1" parent="vQLtZ0_6DRkMuf_HglVX-205">
          <mxGeometry x="200" width="40" height="40" as="geometry">
            <mxRectangle width="40" height="40" as="alternateBounds" />
          </mxGeometry>
        </mxCell>
        <mxCell id="vQLtZ0_6DRkMuf_HglVX-212" value="0" style="shape=partialRectangle;html=1;whiteSpace=wrap;connectable=0;fillColor=none;top=0;left=0;bottom=0;right=0;overflow=hidden;fontSize=20;" vertex="1" parent="vQLtZ0_6DRkMuf_HglVX-205">
          <mxGeometry x="240" width="40" height="40" as="geometry">
            <mxRectangle width="40" height="40" as="alternateBounds" />
          </mxGeometry>
        </mxCell>
        <mxCell id="vQLtZ0_6DRkMuf_HglVX-213" value="0" style="shape=partialRectangle;html=1;whiteSpace=wrap;connectable=0;fillColor=none;top=0;left=0;bottom=0;right=0;overflow=hidden;pointerEvents=1;fontSize=20;" vertex="1" parent="vQLtZ0_6DRkMuf_HglVX-205">
          <mxGeometry x="280" width="40" height="40" as="geometry">
            <mxRectangle width="40" height="40" as="alternateBounds" />
          </mxGeometry>
        </mxCell>
        <mxCell id="vQLtZ0_6DRkMuf_HglVX-245" style="shape=partialRectangle;html=1;whiteSpace=wrap;connectable=0;fillColor=none;top=0;left=0;bottom=0;right=0;overflow=hidden;pointerEvents=1;fontSize=20;" vertex="1" parent="vQLtZ0_6DRkMuf_HglVX-205">
          <mxGeometry x="320" width="40" height="40" as="geometry">
            <mxRectangle width="40" height="40" as="alternateBounds" />
          </mxGeometry>
        </mxCell>
        <mxCell id="vQLtZ0_6DRkMuf_HglVX-214" style="shape=tableRow;horizontal=0;startSize=0;swimlaneHead=0;swimlaneBody=0;top=0;left=0;bottom=0;right=0;collapsible=0;dropTarget=0;fillColor=none;points=[[0,0.5],[1,0.5]];portConstraint=eastwest;fontSize=20;" vertex="1" parent="vQLtZ0_6DRkMuf_HglVX-119">
          <mxGeometry y="360" width="360" height="40" as="geometry" />
        </mxCell>
        <mxCell id="vQLtZ0_6DRkMuf_HglVX-215" style="shape=partialRectangle;html=1;whiteSpace=wrap;connectable=0;fillColor=none;top=0;left=0;bottom=0;right=0;overflow=hidden;fontSize=20;" vertex="1" parent="vQLtZ0_6DRkMuf_HglVX-214">
          <mxGeometry width="40" height="40" as="geometry">
            <mxRectangle width="40" height="40" as="alternateBounds" />
          </mxGeometry>
        </mxCell>
        <mxCell id="vQLtZ0_6DRkMuf_HglVX-216" style="shape=partialRectangle;html=1;whiteSpace=wrap;connectable=0;fillColor=none;top=0;left=0;bottom=0;right=0;overflow=hidden;fontSize=20;" vertex="1" parent="vQLtZ0_6DRkMuf_HglVX-214">
          <mxGeometry x="40" width="40" height="40" as="geometry">
            <mxRectangle width="40" height="40" as="alternateBounds" />
          </mxGeometry>
        </mxCell>
        <mxCell id="vQLtZ0_6DRkMuf_HglVX-217" style="shape=partialRectangle;html=1;whiteSpace=wrap;connectable=0;fillColor=none;top=0;left=0;bottom=0;right=0;overflow=hidden;fontSize=20;" vertex="1" parent="vQLtZ0_6DRkMuf_HglVX-214">
          <mxGeometry x="80" width="40" height="40" as="geometry">
            <mxRectangle width="40" height="40" as="alternateBounds" />
          </mxGeometry>
        </mxCell>
        <mxCell id="vQLtZ0_6DRkMuf_HglVX-218" style="shape=partialRectangle;html=1;whiteSpace=wrap;connectable=0;fillColor=none;top=0;left=0;bottom=0;right=0;overflow=hidden;fontSize=20;" vertex="1" parent="vQLtZ0_6DRkMuf_HglVX-214">
          <mxGeometry x="120" width="40" height="40" as="geometry">
            <mxRectangle width="40" height="40" as="alternateBounds" />
          </mxGeometry>
        </mxCell>
        <mxCell id="vQLtZ0_6DRkMuf_HglVX-219" style="shape=partialRectangle;html=1;whiteSpace=wrap;connectable=0;fillColor=none;top=0;left=0;bottom=0;right=0;overflow=hidden;fontSize=20;" vertex="1" parent="vQLtZ0_6DRkMuf_HglVX-214">
          <mxGeometry x="160" width="40" height="40" as="geometry">
            <mxRectangle width="40" height="40" as="alternateBounds" />
          </mxGeometry>
        </mxCell>
        <mxCell id="vQLtZ0_6DRkMuf_HglVX-220" style="shape=partialRectangle;html=1;whiteSpace=wrap;connectable=0;fillColor=none;top=0;left=0;bottom=0;right=0;overflow=hidden;fontSize=20;" vertex="1" parent="vQLtZ0_6DRkMuf_HglVX-214">
          <mxGeometry x="200" width="40" height="40" as="geometry">
            <mxRectangle width="40" height="40" as="alternateBounds" />
          </mxGeometry>
        </mxCell>
        <mxCell id="vQLtZ0_6DRkMuf_HglVX-221" style="shape=partialRectangle;html=1;whiteSpace=wrap;connectable=0;fillColor=none;top=0;left=0;bottom=0;right=0;overflow=hidden;fontSize=20;" vertex="1" parent="vQLtZ0_6DRkMuf_HglVX-214">
          <mxGeometry x="240" width="40" height="40" as="geometry">
            <mxRectangle width="40" height="40" as="alternateBounds" />
          </mxGeometry>
        </mxCell>
        <mxCell id="vQLtZ0_6DRkMuf_HglVX-222" style="shape=partialRectangle;html=1;whiteSpace=wrap;connectable=0;fillColor=none;top=0;left=0;bottom=0;right=0;overflow=hidden;pointerEvents=1;fontSize=20;" vertex="1" parent="vQLtZ0_6DRkMuf_HglVX-214">
          <mxGeometry x="280" width="40" height="40" as="geometry">
            <mxRectangle width="40" height="40" as="alternateBounds" />
          </mxGeometry>
        </mxCell>
        <mxCell id="vQLtZ0_6DRkMuf_HglVX-246" style="shape=partialRectangle;html=1;whiteSpace=wrap;connectable=0;fillColor=none;top=0;left=0;bottom=0;right=0;overflow=hidden;pointerEvents=1;fontSize=20;" vertex="1" parent="vQLtZ0_6DRkMuf_HglVX-214">
          <mxGeometry x="320" width="40" height="40" as="geometry">
            <mxRectangle width="40" height="40" as="alternateBounds" />
          </mxGeometry>
        </mxCell>
        <mxCell id="vQLtZ0_6DRkMuf_HglVX-254" style="shape=tableRow;horizontal=0;startSize=0;swimlaneHead=0;swimlaneBody=0;top=0;left=0;bottom=0;right=0;collapsible=0;dropTarget=0;fillColor=none;points=[[0,0.5],[1,0.5]];portConstraint=eastwest;fontSize=20;" vertex="1" parent="vQLtZ0_6DRkMuf_HglVX-119">
          <mxGeometry y="400" width="360" height="40" as="geometry" />
        </mxCell>
        <mxCell id="vQLtZ0_6DRkMuf_HglVX-255" style="shape=partialRectangle;html=1;whiteSpace=wrap;connectable=0;fillColor=none;top=0;left=0;bottom=0;right=0;overflow=hidden;fontSize=20;" vertex="1" parent="vQLtZ0_6DRkMuf_HglVX-254">
          <mxGeometry width="40" height="40" as="geometry">
            <mxRectangle width="40" height="40" as="alternateBounds" />
          </mxGeometry>
        </mxCell>
        <mxCell id="vQLtZ0_6DRkMuf_HglVX-256" style="shape=partialRectangle;html=1;whiteSpace=wrap;connectable=0;fillColor=none;top=0;left=0;bottom=0;right=0;overflow=hidden;fontSize=20;" vertex="1" parent="vQLtZ0_6DRkMuf_HglVX-254">
          <mxGeometry x="40" width="40" height="40" as="geometry">
            <mxRectangle width="40" height="40" as="alternateBounds" />
          </mxGeometry>
        </mxCell>
        <mxCell id="vQLtZ0_6DRkMuf_HglVX-257" style="shape=partialRectangle;html=1;whiteSpace=wrap;connectable=0;fillColor=none;top=0;left=0;bottom=0;right=0;overflow=hidden;fontSize=20;" vertex="1" parent="vQLtZ0_6DRkMuf_HglVX-254">
          <mxGeometry x="80" width="40" height="40" as="geometry">
            <mxRectangle width="40" height="40" as="alternateBounds" />
          </mxGeometry>
        </mxCell>
        <mxCell id="vQLtZ0_6DRkMuf_HglVX-258" style="shape=partialRectangle;html=1;whiteSpace=wrap;connectable=0;fillColor=none;top=0;left=0;bottom=0;right=0;overflow=hidden;fontSize=20;" vertex="1" parent="vQLtZ0_6DRkMuf_HglVX-254">
          <mxGeometry x="120" width="40" height="40" as="geometry">
            <mxRectangle width="40" height="40" as="alternateBounds" />
          </mxGeometry>
        </mxCell>
        <mxCell id="vQLtZ0_6DRkMuf_HglVX-259" style="shape=partialRectangle;html=1;whiteSpace=wrap;connectable=0;fillColor=none;top=0;left=0;bottom=0;right=0;overflow=hidden;fontSize=20;" vertex="1" parent="vQLtZ0_6DRkMuf_HglVX-254">
          <mxGeometry x="160" width="40" height="40" as="geometry">
            <mxRectangle width="40" height="40" as="alternateBounds" />
          </mxGeometry>
        </mxCell>
        <mxCell id="vQLtZ0_6DRkMuf_HglVX-260" style="shape=partialRectangle;html=1;whiteSpace=wrap;connectable=0;fillColor=none;top=0;left=0;bottom=0;right=0;overflow=hidden;fontSize=20;" vertex="1" parent="vQLtZ0_6DRkMuf_HglVX-254">
          <mxGeometry x="200" width="40" height="40" as="geometry">
            <mxRectangle width="40" height="40" as="alternateBounds" />
          </mxGeometry>
        </mxCell>
        <mxCell id="vQLtZ0_6DRkMuf_HglVX-261" style="shape=partialRectangle;html=1;whiteSpace=wrap;connectable=0;fillColor=none;top=0;left=0;bottom=0;right=0;overflow=hidden;fontSize=20;" vertex="1" parent="vQLtZ0_6DRkMuf_HglVX-254">
          <mxGeometry x="240" width="40" height="40" as="geometry">
            <mxRectangle width="40" height="40" as="alternateBounds" />
          </mxGeometry>
        </mxCell>
        <mxCell id="vQLtZ0_6DRkMuf_HglVX-262" style="shape=partialRectangle;html=1;whiteSpace=wrap;connectable=0;fillColor=none;top=0;left=0;bottom=0;right=0;overflow=hidden;pointerEvents=1;fontSize=20;" vertex="1" parent="vQLtZ0_6DRkMuf_HglVX-254">
          <mxGeometry x="280" width="40" height="40" as="geometry">
            <mxRectangle width="40" height="40" as="alternateBounds" />
          </mxGeometry>
        </mxCell>
        <mxCell id="vQLtZ0_6DRkMuf_HglVX-263" style="shape=partialRectangle;html=1;whiteSpace=wrap;connectable=0;fillColor=none;top=0;left=0;bottom=0;right=0;overflow=hidden;pointerEvents=1;fontSize=20;" vertex="1" parent="vQLtZ0_6DRkMuf_HglVX-254">
          <mxGeometry x="320" width="40" height="40" as="geometry">
            <mxRectangle width="40" height="40" as="alternateBounds" />
          </mxGeometry>
        </mxCell>
        <mxCell id="vQLtZ0_6DRkMuf_HglVX-265" style="shape=tableRow;horizontal=0;startSize=0;swimlaneHead=0;swimlaneBody=0;top=0;left=0;bottom=0;right=0;collapsible=0;dropTarget=0;fillColor=none;points=[[0,0.5],[1,0.5]];portConstraint=eastwest;fontSize=20;" vertex="1" parent="vQLtZ0_6DRkMuf_HglVX-119">
          <mxGeometry y="440" width="360" height="40" as="geometry" />
        </mxCell>
        <mxCell id="vQLtZ0_6DRkMuf_HglVX-266" style="shape=partialRectangle;html=1;whiteSpace=wrap;connectable=0;fillColor=none;top=0;left=0;bottom=0;right=0;overflow=hidden;fontSize=20;" vertex="1" parent="vQLtZ0_6DRkMuf_HglVX-265">
          <mxGeometry width="40" height="40" as="geometry">
            <mxRectangle width="40" height="40" as="alternateBounds" />
          </mxGeometry>
        </mxCell>
        <mxCell id="vQLtZ0_6DRkMuf_HglVX-267" style="shape=partialRectangle;html=1;whiteSpace=wrap;connectable=0;fillColor=none;top=0;left=0;bottom=0;right=0;overflow=hidden;fontSize=20;" vertex="1" parent="vQLtZ0_6DRkMuf_HglVX-265">
          <mxGeometry x="40" width="40" height="40" as="geometry">
            <mxRectangle width="40" height="40" as="alternateBounds" />
          </mxGeometry>
        </mxCell>
        <mxCell id="vQLtZ0_6DRkMuf_HglVX-268" style="shape=partialRectangle;html=1;whiteSpace=wrap;connectable=0;fillColor=none;top=0;left=0;bottom=0;right=0;overflow=hidden;fontSize=20;" vertex="1" parent="vQLtZ0_6DRkMuf_HglVX-265">
          <mxGeometry x="80" width="40" height="40" as="geometry">
            <mxRectangle width="40" height="40" as="alternateBounds" />
          </mxGeometry>
        </mxCell>
        <mxCell id="vQLtZ0_6DRkMuf_HglVX-269" style="shape=partialRectangle;html=1;whiteSpace=wrap;connectable=0;fillColor=none;top=0;left=0;bottom=0;right=0;overflow=hidden;fontSize=20;" vertex="1" parent="vQLtZ0_6DRkMuf_HglVX-265">
          <mxGeometry x="120" width="40" height="40" as="geometry">
            <mxRectangle width="40" height="40" as="alternateBounds" />
          </mxGeometry>
        </mxCell>
        <mxCell id="vQLtZ0_6DRkMuf_HglVX-270" style="shape=partialRectangle;html=1;whiteSpace=wrap;connectable=0;fillColor=none;top=0;left=0;bottom=0;right=0;overflow=hidden;fontSize=20;" vertex="1" parent="vQLtZ0_6DRkMuf_HglVX-265">
          <mxGeometry x="160" width="40" height="40" as="geometry">
            <mxRectangle width="40" height="40" as="alternateBounds" />
          </mxGeometry>
        </mxCell>
        <mxCell id="vQLtZ0_6DRkMuf_HglVX-271" style="shape=partialRectangle;html=1;whiteSpace=wrap;connectable=0;fillColor=none;top=0;left=0;bottom=0;right=0;overflow=hidden;fontSize=20;" vertex="1" parent="vQLtZ0_6DRkMuf_HglVX-265">
          <mxGeometry x="200" width="40" height="40" as="geometry">
            <mxRectangle width="40" height="40" as="alternateBounds" />
          </mxGeometry>
        </mxCell>
        <mxCell id="vQLtZ0_6DRkMuf_HglVX-272" style="shape=partialRectangle;html=1;whiteSpace=wrap;connectable=0;fillColor=none;top=0;left=0;bottom=0;right=0;overflow=hidden;fontSize=20;" vertex="1" parent="vQLtZ0_6DRkMuf_HglVX-265">
          <mxGeometry x="240" width="40" height="40" as="geometry">
            <mxRectangle width="40" height="40" as="alternateBounds" />
          </mxGeometry>
        </mxCell>
        <mxCell id="vQLtZ0_6DRkMuf_HglVX-273" style="shape=partialRectangle;html=1;whiteSpace=wrap;connectable=0;fillColor=none;top=0;left=0;bottom=0;right=0;overflow=hidden;pointerEvents=1;fontSize=20;" vertex="1" parent="vQLtZ0_6DRkMuf_HglVX-265">
          <mxGeometry x="280" width="40" height="40" as="geometry">
            <mxRectangle width="40" height="40" as="alternateBounds" />
          </mxGeometry>
        </mxCell>
        <mxCell id="vQLtZ0_6DRkMuf_HglVX-274" style="shape=partialRectangle;html=1;whiteSpace=wrap;connectable=0;fillColor=none;top=0;left=0;bottom=0;right=0;overflow=hidden;pointerEvents=1;fontSize=20;" vertex="1" parent="vQLtZ0_6DRkMuf_HglVX-265">
          <mxGeometry x="320" width="40" height="40" as="geometry">
            <mxRectangle width="40" height="40" as="alternateBounds" />
          </mxGeometry>
        </mxCell>
        <mxCell id="vQLtZ0_6DRkMuf_HglVX-275" style="shape=tableRow;horizontal=0;startSize=0;swimlaneHead=0;swimlaneBody=0;top=0;left=0;bottom=0;right=0;collapsible=0;dropTarget=0;fillColor=none;points=[[0,0.5],[1,0.5]];portConstraint=eastwest;fontSize=20;" vertex="1" parent="vQLtZ0_6DRkMuf_HglVX-119">
          <mxGeometry y="480" width="360" height="40" as="geometry" />
        </mxCell>
        <mxCell id="vQLtZ0_6DRkMuf_HglVX-276" style="shape=partialRectangle;html=1;whiteSpace=wrap;connectable=0;fillColor=none;top=0;left=0;bottom=0;right=0;overflow=hidden;fontSize=20;" vertex="1" parent="vQLtZ0_6DRkMuf_HglVX-275">
          <mxGeometry width="40" height="40" as="geometry">
            <mxRectangle width="40" height="40" as="alternateBounds" />
          </mxGeometry>
        </mxCell>
        <mxCell id="vQLtZ0_6DRkMuf_HglVX-277" style="shape=partialRectangle;html=1;whiteSpace=wrap;connectable=0;fillColor=none;top=0;left=0;bottom=0;right=0;overflow=hidden;fontSize=20;" vertex="1" parent="vQLtZ0_6DRkMuf_HglVX-275">
          <mxGeometry x="40" width="40" height="40" as="geometry">
            <mxRectangle width="40" height="40" as="alternateBounds" />
          </mxGeometry>
        </mxCell>
        <mxCell id="vQLtZ0_6DRkMuf_HglVX-278" style="shape=partialRectangle;html=1;whiteSpace=wrap;connectable=0;fillColor=none;top=0;left=0;bottom=0;right=0;overflow=hidden;fontSize=20;" vertex="1" parent="vQLtZ0_6DRkMuf_HglVX-275">
          <mxGeometry x="80" width="40" height="40" as="geometry">
            <mxRectangle width="40" height="40" as="alternateBounds" />
          </mxGeometry>
        </mxCell>
        <mxCell id="vQLtZ0_6DRkMuf_HglVX-279" style="shape=partialRectangle;html=1;whiteSpace=wrap;connectable=0;fillColor=none;top=0;left=0;bottom=0;right=0;overflow=hidden;fontSize=20;" vertex="1" parent="vQLtZ0_6DRkMuf_HglVX-275">
          <mxGeometry x="120" width="40" height="40" as="geometry">
            <mxRectangle width="40" height="40" as="alternateBounds" />
          </mxGeometry>
        </mxCell>
        <mxCell id="vQLtZ0_6DRkMuf_HglVX-280" style="shape=partialRectangle;html=1;whiteSpace=wrap;connectable=0;fillColor=none;top=0;left=0;bottom=0;right=0;overflow=hidden;fontSize=20;" vertex="1" parent="vQLtZ0_6DRkMuf_HglVX-275">
          <mxGeometry x="160" width="40" height="40" as="geometry">
            <mxRectangle width="40" height="40" as="alternateBounds" />
          </mxGeometry>
        </mxCell>
        <mxCell id="vQLtZ0_6DRkMuf_HglVX-281" style="shape=partialRectangle;html=1;whiteSpace=wrap;connectable=0;fillColor=none;top=0;left=0;bottom=0;right=0;overflow=hidden;fontSize=20;" vertex="1" parent="vQLtZ0_6DRkMuf_HglVX-275">
          <mxGeometry x="200" width="40" height="40" as="geometry">
            <mxRectangle width="40" height="40" as="alternateBounds" />
          </mxGeometry>
        </mxCell>
        <mxCell id="vQLtZ0_6DRkMuf_HglVX-282" style="shape=partialRectangle;html=1;whiteSpace=wrap;connectable=0;fillColor=none;top=0;left=0;bottom=0;right=0;overflow=hidden;fontSize=20;" vertex="1" parent="vQLtZ0_6DRkMuf_HglVX-275">
          <mxGeometry x="240" width="40" height="40" as="geometry">
            <mxRectangle width="40" height="40" as="alternateBounds" />
          </mxGeometry>
        </mxCell>
        <mxCell id="vQLtZ0_6DRkMuf_HglVX-283" style="shape=partialRectangle;html=1;whiteSpace=wrap;connectable=0;fillColor=none;top=0;left=0;bottom=0;right=0;overflow=hidden;pointerEvents=1;fontSize=20;" vertex="1" parent="vQLtZ0_6DRkMuf_HglVX-275">
          <mxGeometry x="280" width="40" height="40" as="geometry">
            <mxRectangle width="40" height="40" as="alternateBounds" />
          </mxGeometry>
        </mxCell>
        <mxCell id="vQLtZ0_6DRkMuf_HglVX-284" style="shape=partialRectangle;html=1;whiteSpace=wrap;connectable=0;fillColor=none;top=0;left=0;bottom=0;right=0;overflow=hidden;pointerEvents=1;fontSize=20;" vertex="1" parent="vQLtZ0_6DRkMuf_HglVX-275">
          <mxGeometry x="320" width="40" height="40" as="geometry">
            <mxRectangle width="40" height="40" as="alternateBounds" />
          </mxGeometry>
        </mxCell>
        <mxCell id="vQLtZ0_6DRkMuf_HglVX-224" value="T" style="text;strokeColor=none;fillColor=none;align=center;verticalAlign=middle;spacingLeft=4;spacingRight=4;overflow=hidden;points=[[0,0.5],[1,0.5]];portConstraint=eastwest;rotatable=0;fontSize=20;" vertex="1" parent="1">
          <mxGeometry x="240" y="40" width="40" height="40" as="geometry" />
        </mxCell>
        <mxCell id="vQLtZ0_6DRkMuf_HglVX-225" value="A" style="text;strokeColor=none;fillColor=none;align=center;verticalAlign=middle;spacingLeft=4;spacingRight=4;overflow=hidden;points=[[0,0.5],[1,0.5]];portConstraint=eastwest;rotatable=0;fontSize=20;" vertex="1" parent="1">
          <mxGeometry x="280" y="40" width="40" height="40" as="geometry" />
        </mxCell>
        <mxCell id="vQLtZ0_6DRkMuf_HglVX-226" value="G" style="text;strokeColor=none;fillColor=none;align=center;verticalAlign=middle;spacingLeft=4;spacingRight=4;overflow=hidden;points=[[0,0.5],[1,0.5]];portConstraint=eastwest;rotatable=0;fontSize=20;" vertex="1" parent="1">
          <mxGeometry x="320" y="40" width="40" height="40" as="geometry" />
        </mxCell>
        <mxCell id="vQLtZ0_6DRkMuf_HglVX-227" value="C" style="text;strokeColor=none;fillColor=none;align=center;verticalAlign=middle;spacingLeft=4;spacingRight=4;overflow=hidden;points=[[0,0.5],[1,0.5]];portConstraint=eastwest;rotatable=0;fontSize=20;" vertex="1" parent="1">
          <mxGeometry x="360" y="40" width="40" height="40" as="geometry" />
        </mxCell>
        <mxCell id="vQLtZ0_6DRkMuf_HglVX-228" value="C" style="text;strokeColor=none;fillColor=none;align=center;verticalAlign=middle;spacingLeft=4;spacingRight=4;overflow=hidden;points=[[0,0.5],[1,0.5]];portConstraint=eastwest;rotatable=0;fontSize=20;" vertex="1" parent="1">
          <mxGeometry x="400" y="40" width="40" height="40" as="geometry" />
        </mxCell>
        <mxCell id="vQLtZ0_6DRkMuf_HglVX-229" value="C" style="text;strokeColor=none;fillColor=none;align=center;verticalAlign=middle;spacingLeft=4;spacingRight=4;overflow=hidden;points=[[0,0.5],[1,0.5]];portConstraint=eastwest;rotatable=0;fontSize=20;" vertex="1" parent="1">
          <mxGeometry x="440" y="40" width="40" height="40" as="geometry" />
        </mxCell>
        <mxCell id="vQLtZ0_6DRkMuf_HglVX-230" value="T" style="text;strokeColor=none;fillColor=none;align=center;verticalAlign=middle;spacingLeft=4;spacingRight=4;overflow=hidden;points=[[0,0.5],[1,0.5]];portConstraint=eastwest;rotatable=0;fontSize=20;" vertex="1" parent="1">
          <mxGeometry x="480" y="40" width="40" height="40" as="geometry" />
        </mxCell>
        <mxCell id="vQLtZ0_6DRkMuf_HglVX-231" value="A" style="text;strokeColor=none;fillColor=none;align=center;verticalAlign=middle;spacingLeft=4;spacingRight=4;overflow=hidden;points=[[0,0.5],[1,0.5]];portConstraint=eastwest;rotatable=0;fontSize=20;" vertex="1" parent="1">
          <mxGeometry x="520" y="40" width="40" height="40" as="geometry" />
        </mxCell>
        <mxCell id="vQLtZ0_6DRkMuf_HglVX-234" value="T" style="text;strokeColor=none;fillColor=none;align=center;verticalAlign=middle;spacingLeft=4;spacingRight=4;overflow=hidden;points=[[0,0.5],[1,0.5]];portConstraint=eastwest;rotatable=0;fontSize=20;" vertex="1" parent="1">
          <mxGeometry x="200" y="80" width="40" height="40" as="geometry" />
        </mxCell>
        <mxCell id="vQLtZ0_6DRkMuf_HglVX-235" value="A" style="text;strokeColor=none;fillColor=none;align=center;verticalAlign=middle;spacingLeft=4;spacingRight=4;overflow=hidden;points=[[0,0.5],[1,0.5]];portConstraint=eastwest;rotatable=0;fontSize=20;" vertex="1" parent="1">
          <mxGeometry x="200" y="120" width="40" height="40" as="geometry" />
        </mxCell>
        <mxCell id="vQLtZ0_6DRkMuf_HglVX-236" value="C" style="text;strokeColor=none;fillColor=none;align=center;verticalAlign=middle;spacingLeft=4;spacingRight=4;overflow=hidden;points=[[0,0.5],[1,0.5]];portConstraint=eastwest;rotatable=0;fontSize=20;" vertex="1" parent="1">
          <mxGeometry x="200" y="160" width="40" height="40" as="geometry" />
        </mxCell>
        <mxCell id="vQLtZ0_6DRkMuf_HglVX-247" value="G" style="text;strokeColor=none;fillColor=none;align=center;verticalAlign=middle;spacingLeft=4;spacingRight=4;overflow=hidden;points=[[0,0.5],[1,0.5]];portConstraint=eastwest;rotatable=0;fontSize=20;" vertex="1" parent="1">
          <mxGeometry x="200" y="200" width="40" height="40" as="geometry" />
        </mxCell>
        <mxCell id="vQLtZ0_6DRkMuf_HglVX-248" value="G" style="text;strokeColor=none;fillColor=none;align=center;verticalAlign=middle;spacingLeft=4;spacingRight=4;overflow=hidden;points=[[0,0.5],[1,0.5]];portConstraint=eastwest;rotatable=0;fontSize=20;" vertex="1" parent="1">
          <mxGeometry x="200" y="240" width="40" height="40" as="geometry" />
        </mxCell>
        <mxCell id="vQLtZ0_6DRkMuf_HglVX-249" value="G" style="text;strokeColor=none;fillColor=none;align=center;verticalAlign=middle;spacingLeft=4;spacingRight=4;overflow=hidden;points=[[0,0.5],[1,0.5]];portConstraint=eastwest;rotatable=0;fontSize=20;" vertex="1" parent="1">
          <mxGeometry x="200" y="280" width="40" height="40" as="geometry" />
        </mxCell>
        <mxCell id="vQLtZ0_6DRkMuf_HglVX-250" value="C" style="text;strokeColor=none;fillColor=none;align=center;verticalAlign=middle;spacingLeft=4;spacingRight=4;overflow=hidden;points=[[0,0.5],[1,0.5]];portConstraint=eastwest;rotatable=0;fontSize=20;" vertex="1" parent="1">
          <mxGeometry x="200" y="320" width="40" height="40" as="geometry" />
        </mxCell>
        <mxCell id="vQLtZ0_6DRkMuf_HglVX-251" value="C" style="text;strokeColor=none;fillColor=none;align=center;verticalAlign=middle;spacingLeft=4;spacingRight=4;overflow=hidden;points=[[0,0.5],[1,0.5]];portConstraint=eastwest;rotatable=0;fontSize=20;" vertex="1" parent="1">
          <mxGeometry x="200" y="360" width="40" height="40" as="geometry" />
        </mxCell>
        <mxCell id="vQLtZ0_6DRkMuf_HglVX-252" value="C" style="text;strokeColor=none;fillColor=none;align=center;verticalAlign=middle;spacingLeft=4;spacingRight=4;overflow=hidden;points=[[0,0.5],[1,0.5]];portConstraint=eastwest;rotatable=0;fontSize=20;" vertex="1" parent="1">
          <mxGeometry x="200" y="400" width="40" height="40" as="geometry" />
        </mxCell>
        <mxCell id="vQLtZ0_6DRkMuf_HglVX-253" value="G" style="text;strokeColor=none;fillColor=none;align=center;verticalAlign=middle;spacingLeft=4;spacingRight=4;overflow=hidden;points=[[0,0.5],[1,0.5]];portConstraint=eastwest;rotatable=0;fontSize=20;" vertex="1" parent="1">
          <mxGeometry x="200" y="440" width="40" height="40" as="geometry" />
        </mxCell>
        <mxCell id="vQLtZ0_6DRkMuf_HglVX-264" value="C" style="text;strokeColor=none;fillColor=none;align=center;verticalAlign=middle;spacingLeft=4;spacingRight=4;overflow=hidden;points=[[0,0.5],[1,0.5]];portConstraint=eastwest;rotatable=0;fontSize=20;" vertex="1" parent="1">
          <mxGeometry x="200" y="480" width="40" height="40" as="geometry" />
        </mxCell>
        <mxCell id="vQLtZ0_6DRkMuf_HglVX-285" value="T" style="text;strokeColor=none;fillColor=none;align=center;verticalAlign=middle;spacingLeft=4;spacingRight=4;overflow=hidden;points=[[0,0.5],[1,0.5]];portConstraint=eastwest;rotatable=0;fontSize=20;" vertex="1" parent="1">
          <mxGeometry x="200" y="520" width="40" height="40" as="geometry" />
        </mxCell>
        <mxCell id="vQLtZ0_6DRkMuf_HglVX-286" value="A" style="text;strokeColor=none;fillColor=none;align=center;verticalAlign=middle;spacingLeft=4;spacingRight=4;overflow=hidden;points=[[0,0.5],[1,0.5]];portConstraint=eastwest;rotatable=0;fontSize=20;" vertex="1" parent="1">
          <mxGeometry x="200" y="560" width="40" height="40" as="geometry" />
        </mxCell>
      </root>
    </mxGraphModel>
  </diagram>
</mxfile>
